<svg width="38" height="16" viewBox="0 0 38 16" fill="none" xmlns="http://www.w3.org/2000/svg">
<path fill-rule="evenodd" clip-rule="evenodd" d="M4.88 15.37C5.85333 15.79 6.89333 16 8 16C9.10667 16 10.1467 15.79 11.12 15.37C12.0933 14.95 12.94 14.38 13.66 13.66C14.38 12.94 14.95 12.0933 15.37 11.12C15.79 10.1467 16 9.10667 16 8C16 6.89333 15.79 5.85333 15.37 4.88C14.95 3.90667 14.38 3.06 13.66 2.34C12.94 1.62 12.0933 1.05 11.12 0.63C10.1467 0.21 9.10667 0 8 0C6.89333 0 5.85333 0.21 4.88 0.63C3.90667 1.05 3.06 1.62 2.34 2.34C1.62 3.06 1.05 3.90667 0.63 4.88C0.21 5.85333 0 6.89333 0 8C0 9.10667 0.21 10.1467 0.63 11.12C1.05 12.0933 1.62 12.94 2.34 13.66C3.06 14.38 3.90667 14.95 4.88 15.37ZM7.2 12.8V14.36C5.58667 14.16 4.25 13.4533 3.19 12.24C2.13 11.0267 1.6 9.61333 1.6 8C1.6 7.76 1.61667 7.52 1.65 7.28C1.68333 7.04 1.72 6.8 1.76 6.56L5.6 10.4V11.2C5.6 11.64 5.75667 12.0167 6.07 12.33C6.38333 12.6433 6.76 12.8 7.2 12.8ZM13.44 11.37C13.2267 11.71 12.9867 12.0267 12.72 12.32C12.6133 11.9867 12.42 11.7167 12.14 11.51C11.86 11.3033 11.5467 11.2 11.2 11.2H10.4V8.8C10.4 8.57333 10.3233 8.38333 10.17 8.23C10.0167 8.07667 9.82667 8 9.6 8H4.8V6.4H6.4C6.62667 6.4 6.81667 6.32333 6.97 6.17C7.12333 6.01667 7.2 5.82667 7.2 5.6V4H8.8C9.24 4 9.61667 3.84333 9.93 3.53C10.2433 3.21667 10.4 2.84 10.4 2.4V2.08C11.6133 2.56 12.5833 3.34 13.31 4.42C14.0367 5.5 14.4 6.69333 14.4 8C14.4 8.4 14.3633 8.79333 14.29 9.18C14.2167 9.56667 14.11 9.94333 13.97 10.31C13.83 10.6767 13.6533 11.03 13.44 11.37Z" fill="white"/>
<path d="M28 6L33 11L38 6H28Z" fill="white"/>
</svg>
