<?xml version="1.0" encoding="UTF-8"?>
<svg id="Layer_2" data-name="Layer 2" xmlns="http://www.w3.org/2000/svg" xmlns:xlink="http://www.w3.org/1999/xlink" viewBox="0 0 160 37">
  <defs>
    <style>
      .cls-1 {
        fill: none;
      }

      .cls-2 {
        fill: #001f60;
      }

      .cls-3 {
        fill: #fff;
      }

      .cls-4 {
        fill: #ee2b29;
      }

      .cls-5 {
        clip-path: url(#clippath);
      }

      .cls-6 {
        fill: #ffcc02;
      }
    </style>
    <clipPath id="clippath">
      <polygon class="cls-1" points="33.83 3.92 28.75 30.73 2.86 30.73 33.83 3.92"/>
    </clipPath>
  </defs>
  <g>
    <g class="cls-5">
      <polygon class="cls-2" points="33.83 3.92 28.75 30.73 2.86 30.73 33.83 3.92"/>
      <path class="cls-6" d="M31.52,24.63l-1.03-6.93c-.1-.67-.14-1.35-.12-2.03l.29-9.67-.87-.03-.29,9.58c-.02.74-.12,1.48-.28,2.2l-.49,2.15-.85-2.08c-.35-.86-.59-1.76-.73-2.67l-1.33-9.21-.87.13,1.38,9.53c.1.7.14,1.42.11,2.13l-.12,2.74-1.2-1.94c-.46-.75-.83-1.54-1.11-2.37l-2.93-8.74-.82.31,3.08,9.21c.17.52.31,1.05.41,1.58l.53,2.92-2.18-2.37c-.46-.5-.87-1.04-1.24-1.61l-5.19-8.17-.74.46,5.14,8.08c.4.63.73,1.29,1,1.98l1.02,2.63-2.42-1.68c-.56-.39-1.08-.82-1.56-1.3l-6.84-6.84-.62.62,6.77,6.77c.52.52,1,1.1,1.41,1.72l1.64,2.45-2.46-.99c-.66-.27-1.3-.6-1.9-.98l-8.13-5.25-.47.74,8.14,5.25c.59.38,1.15.82,1.66,1.31l2.18,2.07-3.26-.52c-.66-.11-1.31-.27-1.93-.49l-8.67-3.01-.29.83,8.5,2.84c.72.24,1.42.56,2.08.94l2.67,1.54-3.43.05c-.56,0-1.11-.02-1.67-.1l-9.32-1.24-.14.86,8.8,1.07c.87.11,1.72.31,2.54.61l6.79,2.49h8.79l.55-7.58Z"/>
    </g>
    <polygon class="cls-4" points="49.32 3.92 44.23 30.73 18.35 30.73 49.32 3.92"/>
  </g>
  <g>
    <path class="cls-3" d="M59.34,10.66c.46,0,.88.04,1.26.13.39.09.72.24,1,.44.28.2.5.48.65.81.16.34.24.76.24,1.26s-.1.95-.29,1.34-.45.73-.78,1c-.33.27-.7.48-1.12.62-.42.14-.87.22-1.35.22h-2.47l-.69,3.26h-1.98l1.88-9.09h3.64ZM58.85,14.93c.51,0,.91-.13,1.2-.39s.44-.66.44-1.2c0-.23-.04-.42-.12-.57-.08-.15-.19-.26-.32-.34-.14-.08-.29-.14-.45-.17-.17-.03-.34-.05-.51-.05h-1.7l-.56,2.72h2.03Z"/>
    <path class="cls-3" d="M65.63,10.66l-.67,3.27h.03c.07-.09.17-.2.29-.31.13-.11.28-.21.46-.31.18-.09.39-.17.62-.24.24-.06.5-.1.8-.1,1.28,0,1.92.59,1.92,1.77,0,.07,0,.16-.03.26-.02.11-.04.21-.06.32-.02.11-.04.21-.06.31-.02.1-.04.18-.04.24l-.81,3.86h-1.8l.8-3.86c.02-.1.04-.24.07-.41.03-.17.04-.3.04-.39,0-.2-.09-.36-.27-.48-.18-.13-.38-.19-.59-.19-.27,0-.51.05-.72.16-.21.11-.39.24-.53.41-.15.17-.27.37-.37.59-.1.22-.17.45-.22.67l-.74,3.5h-1.79l1.88-9.09h1.8Z"/>
    <path class="cls-3" d="M72.38,13.16l-1.4,6.58h-1.8l1.39-6.58h1.82ZM70.77,12.15l.33-1.49h1.82l-.33,1.49h-1.82Z"/>
    <path class="cls-3" d="M76.08,10.66l-1.93,9.09h-1.79l1.92-9.09h1.8Z"/>
    <path class="cls-3" d="M78.73,13.16l-1.4,6.58h-1.8l1.39-6.58h1.82ZM77.12,12.15l.33-1.49h1.82l-.33,1.49h-1.82Z"/>
    <path class="cls-3" d="M81.59,13.16l-.18.81.03.03c.2-.36.48-.62.83-.78.35-.16.73-.24,1.14-.24.8,0,1.41.23,1.84.7.43.47.65,1.1.65,1.9,0,.54-.07,1.07-.22,1.59-.14.52-.36.98-.66,1.39-.3.41-.67.73-1.11.98-.44.25-.97.37-1.58.37-.19,0-.37-.02-.57-.06-.19-.04-.37-.11-.53-.19-.17-.08-.31-.19-.44-.32-.13-.13-.23-.29-.3-.46h-.04l-.69,3.18h-1.79l1.88-8.89h1.74ZM81.93,14.62c-.25.18-.45.41-.62.69s-.29.58-.37.91c-.08.33-.12.63-.12.91,0,.43.11.78.32,1.04.21.26.54.39.98.39.35,0,.64-.09.89-.27.25-.18.45-.4.61-.67.16-.27.28-.57.36-.89.08-.32.11-.63.11-.92,0-.2-.03-.38-.08-.56-.06-.18-.14-.33-.24-.46-.11-.13-.24-.24-.4-.32-.16-.08-.35-.12-.56-.12-.34,0-.63.09-.88.27Z"/>
    <path class="cls-3" d="M89.1,13.16l-.18.81.03.03c.2-.36.48-.62.83-.78.35-.16.73-.24,1.14-.24.8,0,1.41.23,1.84.7.43.47.65,1.1.65,1.9,0,.54-.07,1.07-.22,1.59-.14.52-.36.98-.66,1.39-.3.41-.67.73-1.11.98-.44.25-.97.37-1.58.37-.19,0-.37-.02-.57-.06-.19-.04-.37-.11-.53-.19-.17-.08-.31-.19-.44-.32-.13-.13-.23-.29-.3-.46h-.04l-.69,3.18h-1.79l1.88-8.89h1.74ZM89.45,14.62c-.25.18-.45.41-.62.69s-.29.58-.37.91c-.08.33-.12.63-.12.91,0,.43.11.78.32,1.04.21.26.54.39.98.39.35,0,.64-.09.89-.27.25-.18.45-.4.61-.67.16-.27.28-.57.36-.89.08-.32.11-.63.11-.92,0-.2-.03-.38-.08-.56-.06-.18-.14-.33-.24-.46-.11-.13-.24-.24-.4-.32-.16-.08-.35-.12-.56-.12-.34,0-.63.09-.88.27Z"/>
    <path class="cls-3" d="M96.79,13.16l-1.4,6.58h-1.8l1.39-6.58h1.82ZM95.18,12.15l.33-1.49h1.82l-.33,1.49h-1.82Z"/>
    <path class="cls-3" d="M99.72,13.16l-.2.92h.03c.58-.73,1.35-1.09,2.3-1.09,1.28,0,1.92.59,1.92,1.77,0,.07,0,.16-.03.26-.02.11-.04.21-.06.32-.02.11-.04.21-.06.31-.02.1-.04.18-.04.24l-.81,3.86h-1.8l.8-3.86c.02-.1.04-.24.07-.41.03-.17.04-.3.04-.39,0-.2-.09-.36-.27-.48-.18-.13-.38-.19-.59-.19-.27,0-.51.05-.72.16-.21.11-.39.24-.53.41-.15.17-.27.37-.37.59-.1.22-.17.45-.22.67l-.74,3.5h-1.79l1.36-6.58h1.73Z"/>
    <path class="cls-3" d="M106.13,17.01v.27c0,.38.12.69.36.93.24.24.6.36,1.09.36.18,0,.34-.03.48-.08.14-.06.26-.13.37-.21.11-.08.2-.18.28-.29.08-.11.15-.22.22-.32h1.8c-.14.37-.31.7-.51.98-.2.28-.43.52-.7.71-.27.19-.59.33-.95.43-.36.09-.78.14-1.25.14-.44,0-.84-.06-1.2-.18-.36-.12-.67-.3-.92-.54-.25-.24-.45-.54-.59-.9-.14-.36-.21-.77-.21-1.25,0-.53.08-1.03.25-1.52.17-.49.41-.92.72-1.3.31-.38.69-.68,1.14-.9.45-.22.95-.34,1.51-.34.46,0,.87.06,1.25.18.38.12.7.3.97.54.27.24.47.54.62.9.15.36.22.78.22,1.25,0,.32-.03.67-.1,1.03h-4.84s-.01.08-.01.11ZM109.31,15.25c-.03-.17-.09-.32-.17-.45-.08-.14-.21-.24-.37-.32-.16-.08-.37-.12-.64-.12s-.48.04-.67.11c-.2.08-.36.18-.51.31-.14.13-.26.28-.36.45-.1.17-.18.35-.25.53h3.01c0-.17-.01-.34-.04-.5Z"/>
    <path class="cls-3" d="M121.03,10.66l1.51,9.09h-1.98l-.29-2.02h-3.39l-1.14,2.02h-2.1l5.35-9.09h2.05ZM120.09,16.23l-.45-3.62h-.03l-1.96,3.62h2.43Z"/>
    <path class="cls-3" d="M126.11,13.16l-1.4,6.58h-1.8l1.39-6.58h1.82ZM124.5,12.15l.33-1.49h1.82l-.33,1.49h-1.82Z"/>
    <path class="cls-3" d="M129.03,13.16l-.27,1.18.03.03c.2-.46.51-.8.92-1.04.41-.23.86-.35,1.34-.35.19,0,.37.01.56.04l-.37,1.76c-.13-.03-.25-.05-.38-.08-.13-.03-.25-.04-.38-.04-.35,0-.64.06-.88.18s-.44.28-.61.48c-.17.2-.3.44-.39.69-.1.26-.18.53-.23.81l-.61,2.92h-1.79l1.36-6.58h1.72Z"/>
    <path class="cls-3" d="M134.81,10.66l-1.93,9.09h-1.79l1.92-9.09h1.81Z"/>
    <path class="cls-3" d="M137.33,13.16l-1.4,6.58h-1.8l1.39-6.58h1.82ZM135.71,12.15l.33-1.49h1.82l-.33,1.49h-1.82Z"/>
    <path class="cls-3" d="M140.25,13.16l-.2.92h.03c.58-.73,1.35-1.09,2.3-1.09,1.28,0,1.92.59,1.92,1.77,0,.07,0,.16-.03.26-.02.11-.04.21-.06.32-.02.11-.04.21-.06.31-.02.1-.04.18-.04.24l-.81,3.86h-1.8l.8-3.86c.02-.1.04-.24.07-.41.03-.17.04-.3.04-.39,0-.2-.09-.36-.27-.48-.18-.13-.38-.19-.59-.19-.27,0-.51.05-.72.16-.21.11-.39.24-.53.41-.15.17-.27.37-.37.59-.1.22-.17.45-.22.67l-.74,3.5h-1.79l1.36-6.58h1.73Z"/>
    <path class="cls-3" d="M146.22,17.01v.27c0,.38.12.69.36.93.24.24.6.36,1.09.36.18,0,.34-.03.48-.08.14-.06.26-.13.37-.21.11-.08.2-.18.28-.29.08-.11.15-.22.22-.32h1.81c-.14.37-.31.7-.51.98s-.43.52-.7.71c-.27.19-.59.33-.95.43-.36.09-.78.14-1.25.14-.44,0-.84-.06-1.2-.18-.36-.12-.67-.3-.92-.54-.25-.24-.45-.54-.59-.9-.14-.36-.21-.77-.21-1.25,0-.53.08-1.03.25-1.52s.41-.92.72-1.3c.31-.38.69-.68,1.14-.9.45-.22.95-.34,1.51-.34.46,0,.87.06,1.25.18.38.12.7.3.97.54.27.24.47.54.62.9.15.36.22.78.22,1.25,0,.32-.03.67-.1,1.03h-4.84s-.01.08-.01.11ZM149.39,15.25c-.03-.17-.09-.32-.17-.45-.08-.14-.21-.24-.37-.32-.16-.08-.37-.12-.64-.12s-.48.04-.67.11-.36.18-.51.31c-.14.13-.26.28-.36.45-.1.17-.18.35-.25.53h3.01c0-.17-.01-.34-.04-.5Z"/>
    <path class="cls-3" d="M155.63,14.43c-.16-.16-.41-.24-.77-.24-.32,0-.59.05-.79.15-.21.1-.31.27-.31.5,0,.14.06.27.18.37.12.1.34.2.64.29l.9.29c.25.08.47.17.68.27s.39.23.55.38c.16.15.28.32.37.53s.13.44.13.71c0,.41-.09.75-.27,1.04-.18.28-.42.52-.72.69-.3.18-.63.31-1,.38-.37.08-.75.11-1.13.11-.32,0-.65-.03-.98-.1s-.63-.18-.9-.34c-.27-.16-.49-.36-.65-.62-.17-.26-.25-.58-.25-.97v-.27h1.66v.22c0,.15.04.28.11.39s.18.2.3.27c.12.07.26.13.42.17.16.04.31.06.46.06.14,0,.27-.01.41-.04.14-.03.26-.07.37-.13.11-.06.2-.14.27-.24.07-.1.1-.22.1-.38,0-.23-.06-.39-.18-.48-.12-.09-.28-.17-.47-.24l-1.39-.45c-.23-.08-.43-.16-.6-.24-.17-.08-.32-.19-.44-.32-.12-.13-.22-.28-.28-.46-.06-.18-.1-.4-.1-.66,0-.39.09-.72.27-.98s.42-.48.71-.64c.29-.17.6-.28.95-.36.34-.07.67-.11.99-.11.36,0,.7.03,1.03.09.33.06.62.17.87.32.25.16.45.37.59.64.14.27.21.62.2,1.04h-1.68c0-.28-.09-.5-.25-.66Z"/>
  </g>
  <g>
    <path class="cls-3" d="M56.11,24.81l-1.29,6.11h-.91l1.29-6.11h-2.31l.16-.77h5.54l-.17.77h-2.31Z"/>
    <path class="cls-3" d="M60.05,24.04l-.59,2.63.02.02c.21-.29.46-.51.78-.65.31-.14.64-.22.99-.22.47,0,.82.1,1.04.31.23.21.34.53.34.97,0,.11-.01.25-.04.42-.03.17-.06.36-.11.55l-.61,2.84h-.82l.63-2.91c0-.05.02-.11.03-.18.01-.07.03-.14.04-.21s.02-.14.03-.21c0-.07.01-.12.01-.17,0-.24-.08-.41-.25-.52-.17-.11-.37-.17-.62-.17-.22,0-.45.05-.67.16-.22.11-.41.25-.56.41-.15.13-.26.28-.35.47-.08.18-.15.37-.2.57l-.58,2.75h-.81l1.44-6.88h.82Z"/>
    <path class="cls-3" d="M64.08,29.1c0,.19.04.36.11.52.07.15.17.28.29.38.12.1.26.18.41.23.15.05.31.08.48.08.37,0,.67-.08.9-.25s.41-.4.53-.71h.82c-.06.28-.17.52-.31.73-.14.21-.31.38-.51.52-.2.14-.42.24-.66.31s-.5.11-.77.11c-.41,0-.75-.06-1.02-.19-.27-.13-.49-.29-.65-.48-.16-.2-.27-.41-.34-.65-.06-.23-.1-.46-.1-.68,0-.47.07-.91.21-1.3.14-.39.32-.73.56-1.02.23-.28.51-.5.82-.65.31-.15.64-.23.98-.23.73,0,1.26.19,1.6.58s.5.93.5,1.63c0,.13,0,.25-.03.37s-.04.21-.05.28h-3.74c-.02.14-.03.29-.03.43ZM67.08,27.43c-.04-.17-.1-.32-.19-.45-.09-.13-.22-.24-.37-.32s-.34-.12-.57-.12c-.24,0-.45.04-.64.11-.19.07-.35.18-.5.3-.14.13-.26.28-.36.45s-.17.35-.23.54h2.88c.01-.17,0-.35-.03-.52Z"/>
    <path class="cls-3" d="M73.44,24.04l-.62,2.96h3.6l.62-2.96h.91l-1.44,6.88h-.91l.66-3.15h-3.6l-.66,3.15h-.91l1.44-6.88h.92Z"/>
    <path class="cls-3" d="M78.86,29.1c0,.19.04.36.11.52.07.15.17.28.29.38.12.1.26.18.41.23.15.05.31.08.48.08.37,0,.67-.08.9-.25s.41-.4.53-.71h.82c-.06.28-.17.52-.31.73-.14.21-.31.38-.51.52-.2.14-.42.24-.66.31s-.5.11-.77.11c-.41,0-.75-.06-1.02-.19-.27-.13-.49-.29-.65-.48-.16-.2-.27-.41-.34-.65-.06-.23-.1-.46-.1-.68,0-.47.07-.91.21-1.3.14-.39.32-.73.56-1.02.23-.28.51-.5.82-.65.31-.15.64-.23.98-.23.73,0,1.26.19,1.6.58s.5.93.5,1.63c0,.13,0,.25-.03.37s-.04.21-.05.28h-3.74c-.02.14-.03.29-.03.43ZM81.86,27.43c-.04-.17-.1-.32-.19-.45-.09-.13-.22-.24-.37-.32s-.34-.12-.57-.12c-.24,0-.45.04-.64.11-.19.07-.35.18-.5.3-.14.13-.26.28-.36.45s-.17.35-.23.54h2.88c.01-.17,0-.35-.03-.52Z"/>
    <path class="cls-3" d="M83.88,26.72c.13-.2.29-.37.49-.51.19-.13.41-.23.65-.3.24-.06.5-.1.76-.1.24,0,.47.02.69.06.22.04.41.11.58.2s.3.23.4.39c.1.16.15.37.15.62,0,.14-.02.29-.05.46-.04.16-.07.31-.1.45l-.32,1.36c-.02.1-.05.22-.08.35-.04.13-.05.25-.05.37s.02.2.07.24c.04.05.1.07.17.07.04,0,.08,0,.13-.02.05-.02.09-.03.13-.04l-.13.61c-.06.03-.15.05-.25.07-.1.02-.18.03-.25.03-.22,0-.39-.06-.51-.18-.12-.12-.16-.29-.13-.51l-.02-.02c-.17.23-.39.41-.64.53-.26.12-.6.18-1.02.18-.21,0-.41-.02-.59-.07-.18-.05-.34-.13-.48-.24-.13-.11-.24-.26-.32-.43-.08-.18-.12-.39-.12-.65,0-.37.08-.65.24-.86.16-.21.36-.36.6-.47.24-.11.51-.18.81-.22.29-.04.58-.07.86-.1.22-.02.41-.04.56-.06.16-.02.29-.06.39-.11.1-.05.18-.13.23-.22.05-.1.07-.23.07-.39,0-.13-.03-.24-.1-.33-.06-.08-.14-.15-.24-.2s-.2-.08-.32-.1-.23-.03-.34-.03c-.15,0-.31.02-.46.05-.15.03-.29.09-.41.16-.12.07-.22.17-.31.28s-.14.25-.16.41h-.82c.04-.28.12-.52.25-.72ZM84.11,30.13c.18.12.39.17.62.17.65,0,1.11-.22,1.39-.65.13-.19.23-.39.27-.61.05-.22.1-.44.16-.67h-.02c-.12.08-.26.14-.44.18-.18.04-.36.06-.56.08-.2.02-.4.04-.6.07-.2.03-.38.08-.54.14-.16.06-.29.16-.39.27-.1.12-.16.28-.16.5,0,.23.09.4.27.52Z"/>
    <path class="cls-3" d="M89.86,25.94l-.24,1.07h.02c.19-.34.44-.62.74-.85.3-.22.66-.34,1.07-.34.05,0,.1,0,.14,0,.04,0,.09,0,.14,0l-.19.88s-.07,0-.12,0h-.12c-.1,0-.19,0-.25,0-.06,0-.14.02-.24.04-.22.06-.42.16-.6.3-.18.14-.33.31-.46.51-.11.16-.2.35-.26.56s-.12.42-.15.6l-.47,2.21h-.81l1.03-4.98h.77Z"/>
    <path class="cls-3" d="M94.99,25.94l-.15.72h-.99l-.62,2.93c0,.06-.01.11-.02.16s0,.11,0,.16c0,.13.05.22.15.26.1.05.21.07.34.07.08,0,.16,0,.24-.02.08-.02.15-.04.23-.06l-.14.75c-.1.01-.19.02-.29.03-.1,0-.19.01-.29.01-.15,0-.3-.01-.43-.03s-.25-.06-.35-.13c-.1-.06-.18-.14-.24-.25-.06-.1-.09-.23-.09-.39,0-.07,0-.14.01-.2,0-.06.02-.13.03-.21l.65-3.09h-.84l.15-.72h.84l.31-1.47h.82l-.31,1.47h.99Z"/>
    <path class="cls-3" d="M97.93,27.78c.12-.38.31-.71.55-1,.24-.29.53-.52.87-.69.34-.17.73-.26,1.17-.26.67,0,1.19.17,1.54.52.35.35.53.86.53,1.54,0,.4-.06.8-.18,1.17-.12.38-.3.71-.54,1.01-.24.29-.53.52-.87.7-.34.17-.73.26-1.16.26-.33,0-.62-.05-.88-.15-.26-.1-.48-.25-.66-.43-.18-.18-.32-.4-.41-.65-.1-.25-.14-.53-.14-.83,0-.4.06-.8.19-1.17ZM98.91,29.93c.23.25.57.38,1.02.38.3,0,.57-.08.79-.23.23-.15.42-.35.58-.58.16-.23.28-.49.36-.77.08-.28.12-.54.12-.78,0-.19-.03-.38-.08-.55-.05-.17-.13-.32-.24-.45-.11-.13-.25-.22-.41-.3-.16-.07-.36-.11-.58-.11-.31,0-.59.08-.83.23s-.44.35-.6.58c-.16.23-.28.49-.36.78-.08.28-.12.55-.12.81,0,.41.12.74.35.99Z"/>
    <path class="cls-3" d="M103.4,26.66l.14-.72h.85c.06-.25.12-.49.18-.73.05-.24.13-.45.24-.63.1-.18.25-.33.43-.44.18-.11.44-.17.76-.17.12,0,.23,0,.35.01.12,0,.23.03.34.06l-.13.69c-.07-.01-.14-.02-.2-.03-.06,0-.13-.01-.18-.01-.2,0-.35.04-.46.11-.11.07-.19.17-.25.29-.06.12-.11.25-.13.4-.03.15-.07.3-.11.45h.95l-.13.72h-.96l-.91,4.26h-.82l.92-4.26h-.85Z"/>
    <path class="cls-3" d="M111.73,25.94l-.15.72h-.99l-.62,2.93c0,.06-.01.11-.02.16s0,.11,0,.16c0,.13.05.22.15.26.1.05.21.07.34.07.08,0,.16,0,.24-.02.08-.02.15-.04.23-.06l-.14.75c-.1.01-.19.02-.29.03-.1,0-.19.01-.29.01-.15,0-.3-.01-.43-.03s-.25-.06-.35-.13c-.1-.06-.18-.14-.24-.25-.06-.1-.09-.23-.09-.39,0-.07,0-.14.01-.2,0-.06.02-.13.03-.21l.65-3.09h-.84l.15-.72h.84l.31-1.47h.82l-.31,1.47h.99Z"/>
    <path class="cls-3" d="M113.87,24.04l-.59,2.63.02.02c.21-.29.46-.51.78-.65.31-.14.64-.22.99-.22.47,0,.82.1,1.04.31.23.21.34.53.34.97,0,.11-.01.25-.04.42-.03.17-.06.36-.11.55l-.61,2.84h-.82l.63-2.91c0-.05.02-.11.03-.18.01-.07.03-.14.04-.21s.02-.14.03-.21c0-.07.01-.12.01-.17,0-.24-.08-.41-.25-.52-.17-.11-.37-.17-.62-.17-.22,0-.45.05-.67.16-.22.11-.41.25-.56.41-.15.13-.26.28-.35.47-.08.18-.15.37-.2.57l-.58,2.75h-.81l1.44-6.88h.82Z"/>
    <path class="cls-3" d="M117.91,29.1c0,.19.04.36.11.52.07.15.17.28.29.38.12.1.26.18.41.23.15.05.31.08.48.08.37,0,.67-.08.9-.25.24-.16.41-.4.53-.71h.82c-.06.28-.17.52-.31.73-.14.21-.31.38-.51.52-.2.14-.42.24-.66.31-.24.07-.5.11-.77.11-.41,0-.75-.06-1.02-.19-.27-.13-.49-.29-.65-.48-.16-.2-.27-.41-.34-.65-.06-.23-.1-.46-.1-.68,0-.47.07-.91.21-1.3.14-.39.32-.73.56-1.02.23-.28.51-.5.82-.65.31-.15.64-.23.98-.23.73,0,1.26.19,1.6.58.34.39.5.93.5,1.63,0,.13,0,.25-.03.37s-.04.21-.05.28h-3.74c-.02.14-.03.29-.03.43ZM120.9,27.43c-.04-.17-.1-.32-.19-.45-.09-.13-.22-.24-.37-.32-.15-.08-.34-.12-.57-.12-.24,0-.45.04-.64.11-.19.07-.35.18-.5.3-.14.13-.26.28-.36.45s-.17.35-.23.54h2.88c.01-.17,0-.35-.03-.52Z"/>
    <path class="cls-3" d="M130.85,24.04l-.16.77h-3.61l-.45,2.19h3.17l-.16.77h-3.17l-.65,3.15h-.91l1.43-6.88h4.52Z"/>
    <path class="cls-3" d="M132.15,25.94l-1.04,4.98h-.81l1.03-4.98h.82ZM131.52,25.04l.21-1h.83l-.21,1h-.83Z"/>
    <path class="cls-3" d="M134.69,24.04l-1.44,6.88h-.81l1.43-6.88h.82Z"/>
    <path class="cls-3" d="M136.42,25.94l-1.04,4.98h-.81l1.03-4.98h.82ZM135.79,25.04l.21-1h.83l-.21,1h-.83Z"/>
    <path class="cls-3" d="M138.5,25.94l-.17.71h.02c.24-.32.5-.54.75-.65s.56-.17.89-.17.6.05.84.15c.24.1.44.24.61.42.17.18.29.39.38.65.08.25.12.53.12.83,0,.38-.06.76-.19,1.13-.12.38-.3.71-.54,1.02-.23.3-.52.55-.87.73-.34.19-.73.28-1.17.28-.15,0-.3-.01-.47-.04-.16-.03-.32-.07-.46-.14-.14-.07-.27-.16-.38-.27-.11-.11-.19-.25-.24-.42h-.02l-.53,2.66h-.8l1.44-6.88h.77ZM140.82,26.9c-.2-.24-.53-.36-.98-.36-.31,0-.58.08-.83.24-.24.16-.45.36-.61.61-.16.24-.29.51-.38.8s-.13.56-.13.83c0,.37.11.68.32.92.21.24.52.37.93.37.33,0,.61-.08.86-.23.24-.15.45-.35.62-.58s.29-.5.38-.79.12-.57.12-.85c0-.4-.1-.73-.3-.96Z"/>
    <path class="cls-3" d="M144.26,25.94l-1.04,4.98h-.81l1.03-4.98h.82ZM143.62,25.04l.21-1h.83l-.21,1h-.83Z"/>
    <path class="cls-3" d="M146.37,25.94l-.15.75h.02c.21-.29.46-.51.78-.65.31-.14.64-.22.99-.22.47,0,.82.1,1.04.31.23.21.34.53.34.97,0,.11-.01.25-.04.42s-.06.36-.11.55l-.61,2.84h-.82l.63-2.91c0-.05.02-.11.03-.18.01-.07.03-.14.04-.21.01-.07.02-.14.03-.21,0-.07.01-.12.01-.17,0-.24-.08-.41-.25-.52-.17-.11-.37-.17-.62-.17-.22,0-.45.05-.67.16-.22.11-.41.25-.56.41-.15.13-.26.28-.35.47s-.15.37-.2.57l-.58,2.75h-.81l1.04-4.98h.79Z"/>
    <path class="cls-3" d="M150.28,27.78c.12-.38.31-.71.55-1s.53-.52.87-.69c.34-.17.73-.26,1.17-.26.67,0,1.19.17,1.54.52.35.35.53.86.53,1.54,0,.4-.06.8-.18,1.17-.12.38-.3.71-.54,1.01-.24.29-.53.52-.87.7-.34.17-.73.26-1.16.26-.33,0-.62-.05-.88-.15s-.48-.25-.66-.43c-.18-.18-.32-.4-.41-.65-.1-.25-.14-.53-.14-.83,0-.4.06-.8.19-1.17ZM151.26,29.93c.23.25.57.38,1.02.38.3,0,.57-.08.79-.23.23-.15.42-.35.58-.58.16-.23.28-.49.36-.77.08-.28.12-.54.12-.78,0-.19-.03-.38-.08-.55s-.13-.32-.24-.45-.24-.22-.41-.3c-.16-.07-.36-.11-.58-.11-.31,0-.59.08-.83.23-.24.15-.44.35-.6.58-.16.23-.28.49-.36.78-.08.28-.12.55-.12.81,0,.41.12.74.35.99Z"/>
  </g>
  <rect class="cls-1" x="-17.56" y="-12.23" width="196.56" height="65.74"/>
</svg>